<?xml version="1.0" encoding="UTF-8"?>
<svg id="Layer_2" data-name="Layer 2" xmlns="http://www.w3.org/2000/svg" viewBox="0 0 1386.4 153.57">
  <defs>
    <style>
      .cls-1 {
        fill: #fff;
      }

      .cls-2 {
        fill: #111827;
      }

      .cls-3 {
        fill: #f59e0b;
      }
    </style>
  </defs>
  <g id="Layer_1-2" data-name="Layer 1">
    <g>
      <g>
        <path class="cls-2" d="M166.77,118.19c-1.41,0-3.3-.39-5.65-1.18-3.45-1.09-5.17-2.66-5.17-4.7v-16c0-4.86-3.38-9.25-10.12-13.17-4.08-2.51-8.39-4.23-12.93-5.17,6.42-.32,12.93-4.24,19.52-11.77,2.03-2.19,4.07-4.58,6.11-7.17s4.16-5.29,6.36-8.11c-3.14-2.2-4.79-3.92-4.94-5.18-2.67-10.19-9.57-18.11-20.7-23.76-8.47-4.23-17.25-6.35-26.35-6.35H0v20c1.57-.16,3.02-.27,4.35-.36,1.33-.07,2.63-.11,3.88-.11,7.37,0,11.61,1.49,12.7,4.47.48,1.25.71,5.88.71,13.87,0,7.53-.08,11.53-.23,12-1.26,5.64-4.4,9.02-9.41,10.11,4.7,1.88,7.68,4.94,8.93,9.18.48,1.72.71,6.27.71,13.64,0,8.78-.47,13.72-1.41,14.82-2.2,3.61-8.94,5.17-20.23,4.7v19.99h86.56v-19.99c-7.06-.31-10.9-.55-11.53-.7-2.82-1.1-4.23-4-4.23-8.71v-17.64h19.76c2.5,0,5.33,1.18,8.47,3.53,3.13,2.35,4.7,4.79,4.7,7.29v19.99c0,3.77,2.19,7.38,6.59,10.82,4.54,3.61,8.7,5.41,12.46,5.41h45.87v-19.99c-.47.16-1.1.24-1.88.24ZM102.55,60.79c-2.66,3.61-5.64,5.41-8.93,5.41h-21.88v-29.63h21.17c3.6,0,6.7,1.49,9.29,4.47,2.59,2.98,3.88,6.27,3.88,9.88s-1.17,6.9-3.53,9.87Z"/>
        <path class="cls-2" d="M339.65,69.16c-2.36-2.97-3.77-5.56-4.24-7.75-8.78-32.87-33.79-49.3-75.03-49.3-32.62,0-54.8,9.47-66.57,28.4-1.09,1.57-3.21,7.75-6.35,18.55-2.35,7.83-6.19,13.39-11.52,16.67,2.19,1.25,3.92,2.35,5.17,3.29,1.26.94,2.04,1.64,2.35,2.11,2.51,3.76,4,7.44,4.47,11.04,1.57,12.05,7.45,22.85,17.65,32.4,10.5,9.54,21.79,14.63,33.87,15.26,8.62.62,14.77,1.05,18.46,1.29,3.36.21,4.66.33,3.91.35,21.04-.04,37.57-3.94,49.6-11.74,13.17-8.92,22.19-23.16,27.05-42.73,2.98-5.32,5.41-9.07,7.29-11.27-1.57-1.09-3.61-3.28-6.11-6.57ZM262.5,119.36c-7.22,0-12.94-2.23-17.17-6.7-4.24-4.47-6.35-10.31-6.35-17.52,0-3.77.85-7.65,2.58-11.65,1.73-4,4.16-6.62,7.29-7.88-4.39-3.44-7.13-6.58-8.23-9.41-.63-1.41-.94-4.23-.94-8.46,0-14.74,7.29-22.11,21.88-22.11s22.34,7.13,22.34,21.4c0,8.16-2.98,14.35-8.94,18.58,6.43,2.67,9.65,9.41,9.65,20.23,0,15.68-7.38,23.52-22.11,23.52Z"/>
        <path class="cls-2" d="M516.52,67.38c-7.99-34.49-22.19-51.75-42.57-51.75h-121.13v20h16.7c6.11,0,9.17,3.45,9.17,10.35,0,.78-.08,2.04-.23,3.76-.16,1.73-.24,2.98-.24,3.76,0,3.45-.04,6.2-.12,8.24-.08,2.04-.2,3.45-.35,4.23-.94,4.08-3.76,7.29-8.47,9.64,4.55,2.36,7.29,5.49,8.23,9.41.47,1.88.71,6.43.71,13.64l.24,2.36v4.23c0,8.47-2.52,12.7-7.53,12.7h-18.11v19.99h121.84c6.74,0,13.72-2.43,20.93-7.29,6.27-4.39,10.74-10.03,13.41-16.93.78-3.61,1.64-7.14,2.59-10.59.94-3.44,1.88-6.97,2.82-10.58,2.03-7.53,5.17-13.17,9.41-16.94-4.4-3.13-6.83-5.88-7.3-8.23ZM462.9,85.73c.78,2.35,1.17,5.72,1.17,10.11,0,5.49-1.1,10.27-3.29,14.35-2.67,5.02-6.51,7.53-11.53,7.53h-20.93v-31.52c0-1.1.94-2.98,2.82-5.65,1.88-2.66,3.37-4.31,4.47-4.94-4.86-3.44-7.29-6.97-7.29-10.58v-29.4h19.52c5.18,0,9.33,2.35,12.47,7.05,2.51,3.92,3.76,8.79,3.76,14.59,0,9.09-3.21,15.21-9.64,18.34,4.23,3.14,7.06,6.51,8.47,10.12Z"/>
        <path class="cls-2" d="M672.94,63.85V15.63h-144.66v20c11.61-.32,18.74,1.1,21.41,4.23,1.56,1.57,2.35,6.51,2.35,14.82,0,6.11-.16,9.96-.47,11.52-1.1,4.24-4,7.38-8.7,9.41,5.01,1.88,7.99,5.34,8.93,10.35.16.47.24,4.71.24,12.7v10.35c-.79,5.96-3.14,8.94-7.06,8.94h-16.7v19.99h143.95v-47.74h-34.1c.15,1.88.23,3.45.23,4.7v2.12c0,13.96-4.23,20.93-12.7,20.93h-23.52v-28.69h27.52v-23.53h-27.52v-29.4h15.99c2.51,0,5.88.87,10.12,2.59,5.49,2.35,8.23,5.17,8.23,8.47v16.46h36.46Z"/>
        <path class="cls-2" d="M832.34,38.73l-18.8,94s.06-.03.09-.05l18.77-93.87s-.04-.06-.06-.08ZM767.73,12.11c-32.62,0-54.81,9.47-66.57,28.4-1.1,1.57-3.22,7.75-6.35,18.55-2.35,7.83-6.2,13.39-11.53,16.67,2.2,1.25,3.92,2.35,5.18,3.29,1.25.94,2.03,1.64,2.35,2.11,2.51,3.76,4,7.44,4.47,11.04,1.57,12.05,7.45,22.85,17.64,32.4,10.5,9.54,21.79,14.63,33.87,15.26,8.62.62,14.78,1.05,18.46,1.29,3.25.2,4.57.32,3.99.34,13.75-.02,25.58-1.71,35.48-5.05l21.06-105.29c-13.09-12.67-32.44-19.01-58.05-19.01ZM769.84,119.36c-7.21,0-12.93-2.23-17.17-6.7-4.23-4.47-6.35-10.31-6.35-17.52,0-3.77.86-7.65,2.59-11.65,1.72-4,4.15-6.62,7.29-7.88-4.39-3.44-7.14-6.58-8.23-9.41-.63-1.41-.94-4.23-.94-8.46,0-14.74,7.29-22.11,21.87-22.11s22.35,7.13,22.35,21.4c0,8.16-2.98,14.35-8.94,18.58,6.43,2.67,9.64,9.41,9.64,20.23,0,15.68-7.37,23.52-22.11,23.52Z"/>
      </g>
      <g>
        <path class="cls-3" d="M837.42,13.32l-5.08,25.41-18.8,94-1.51,7.53h.08l1.52-7.58,18.77-93.87,5.1-25.49h-.08Z"/>
        <path class="cls-3" d="M891.1,13.32h-53.6l-5.1,25.49-18.77,93.87-1.52,7.58h35.83l6.53-33.19h25.39c38.26,0,62.74-20.85,62.74-52.95,0-25.75-18.49-40.8-51.5-40.8ZM881.49,78.78h-21.4l7.43-37.17h18.86c12.52,0,19.95,4.89,19.95,15.59,0,13.97-9.07,21.58-24.84,21.58Z"/>
        <path class="cls-3" d="M1069.92,53.76c0-25.39-18.68-40.44-51.15-40.44h-54.22l-25.39,126.94h35.91l6.71-33.73h18.13l18.86,33.73h37.54l-21.58-38.08c22.13-7.62,35.19-25.03,35.19-48.42ZM1008.62,78.78h-21.4l7.62-37.17h18.86c12.33,0,19.94,4.89,19.94,15.59,0,13.97-9.24,21.58-25.02,21.58Z"/>
        <path class="cls-3" d="M1153.34,10.78c-46.61,0-79.25,32.1-79.25,76.16,0,32.83,24.12,55.86,63.11,55.86,46.6,0,79.25-32.1,79.25-76.17,0-32.82-24.12-55.85-63.11-55.85ZM1140.28,113.06c-19.04,0-29.92-11.43-29.92-28.29,0-23.94,15.05-44.25,39.9-44.25,19.04,0,29.92,11.42,29.92,28.29,0,23.94-15.05,44.25-39.9,44.25Z"/>
      </g>
      <polygon class="cls-1" points="837.5 13.32 832.4 38.81 813.63 132.68 812.11 140.26 812.03 140.26 813.54 132.73 832.34 38.73 837.42 13.32 837.5 13.32"/>
      <path class="cls-2" d="M1370.09,24.21l-1.79-2.61,1.24-2.91c.19-.44.26-.86.24-1.34-.19-3.52-.89-8.5-1.35-11.8l-.06-.45c-.43-2.9-2.93-5.08-5.82-5.08h-15.23c-1.45.01-2.98.68-4.1,1.8-1.04,1.05-1.62,2.37-1.62,3.7l.02,12.74c0,1.72.89,4.03,2.49,6.47,8.63,13.18,21.7,39.15,12.26,65.11-6.65,18.32-23.36,30.15-42.6,30.15h-.25c-19.08-.1-35.69-11.94-42.31-30.16-9.41-25.89,3.64-51.9,12.25-65.09,1.61-2.47,2.5-4.77,2.5-6.48l.02-12.74c0-1.38-.59-2.72-1.66-3.78-1.1-1.08-2.58-1.7-4.05-1.71l-14.93-.03c-3.1,0-5.72,2.18-6.11,5.08l-1.75,13.05,2.26,2.8-2.43,3.54c-19.23,28.01-21.49,65.9-5.64,94.27,9.31,16.66,24.53,28.22,42.85,32.55,6.4,1.52,12.89,2.28,19.29,2.28s13.23-.81,19.75-2.39c24.94-6.1,43.71-25.66,50.2-52.35,6.26-25.6,1.27-52.8-13.67-74.62ZM1250.85,71.89c-1.13-2.15-.59-5.53,2.4-6.81,2.8-1.19,5.63.19,6.59,2.59.98,2.47.1,5.49-2.84,6.61-2.04.78-4.87.05-6.15-2.39ZM1265.25,112.72c-2.5.79-5.72-.56-6.8-3.22-1.18-2.9-.02-6.39,3.37-7.59,3.32-1.18,6.52.84,7.31,3.65.85,3.04-.55,6.12-3.88,7.16ZM1294.2,138.66c-3.07,1.25-6.68-.02-8.16-3.02-1.52-3.07-.5-7.29,3.26-8.81,3.63-1.47,7.16.4,8.38,3.45,1.32,3.29-.17,7.04-3.48,8.38ZM1338.27,138.67c-3.08,1.24-6.65-.02-8.17-3.05-1.53-3.04-.49-7.27,3.26-8.79,3.62-1.47,7.15.39,8.38,3.44,1.33,3.28-.15,7.07-3.47,8.4ZM1365.52,112.69c-2.74.88-5.88-.61-6.88-3.24-1.16-3.03.06-6.45,3.49-7.58,3.37-1.11,6.44.99,7.23,3.8.86,3.05-.77,6.04-3.84,7.02ZM1374.57,74.03c-2.25,1.15-5.11.33-6.34-1.55-1.62-2.47-1.03-5.87,1.84-7.28,2.74-1.36,5.63-.1,6.74,2.29,1.1,2.36.21,5.3-2.24,6.54Z"/>
    </g>
  </g>
</svg>